<?xml version="1.0" encoding="utf-8"?>
<!-- Generator: Adobe Illustrator 25.4.1, SVG Export Plug-In . SVG Version: 6.00 Build 0)  -->
<svg version="1.1" id="Layer_1" xmlns="http://www.w3.org/2000/svg" xmlns:xlink="http://www.w3.org/1999/xlink" x="0px" y="0px"
	 viewBox="0 0 588 588" style="enable-background:new 0 0 588 588;" xml:space="preserve">
<g transform="translate(0.000000,3300.000000) scale(0.100000,-0.100000)">
	<path d="M515.5,30250.1v-1119.6l3381.7-513.9l1318.8,513.9v1119.6v1119.6l-2938.3,382.6l-1762.3-382.6V30250.1z M4508.4,31255.8
		c225-18.1,407.8-99.6,565.7-253.1c100-96.8,177.2-208.5,227.4-328.2l17.3-41.4l163.1-0.8l163.1-1.2v-15.3v-15.3l-705.1,0.4
		c-387.7,0-1380.4,2-2205.6,4c-825.2,2-1592.1,3.6-1704.2,4H825.9v16.1v16.1H1077h251.1v165.9c0,181.2-2,202.5-22.9,240.2
		c-14.1,26.1-40.6,49.4-67.1,59.1c-20.5,7.6-75.9,18.5-119.7,22.9l-23.3,2.4v46.2v45.8h466h466v-45.8v-46.2l-18.9-2.4
		c-40.6-4.8-100.4-17.7-122.9-26.1c-33.7-12.9-55-30.5-68.3-56.2c-21.7-43.8-23.7-63.5-25.7-241.9l-2-163.9h176.4h176L2269,30785
		c148.6,167.5,165.9,188.8,174,215.3c12.1,39.8,5.6,77.1-16.1,94c-19.7,15.7-66.7,24.9-179.6,35l-27.3,2.8v45.8v45.8h399.7h399.7
		v-46.2c0-25.3-1.2-46.2-2.8-46.2c-16.5-0.4-94.8-14.1-125.7-21.7c-155.9-39.8-238.6-104.5-515.8-406.2l-55.8-60.3l224.6-2.4
		c123.7-1.2,398.5-2.8,610.7-3.2l386.5-0.4l8.8,23.3c18.9,46.6,62.7,129,96.8,179.6c77.1,115.7,186.4,223.4,290.1,286.8
		C4101,31226.9,4301.5,31272.3,4508.4,31255.8z M2635.4,30541.9c1.2-4,33.7-135.4,72.7-292.5c38.6-156.7,75.9-302.5,82.4-323.8
		c12.9-41.4,24.1-59.9,36.6-59.9c6.4,0,7.6-2.8,7.6-22.1v-22.1h-106.5h-106.5v21.7v21.7l19.7,2.8c11.2,1.6,22.1,5.2,24.9,8.4
		c6.8,8,2.8,46.6-10.4,101.2l-10.8,45H2584h-61.5l-10.8-51c-10.4-51-13.3-83.2-7.2-92.4c4-6,22.9-13.3,35.4-13.3
		c8.8,0,9.6-1.2,9.6-22.1v-22.1h-72.3h-72.3v22.1c0,19.7,0.8,22.1,8,22.1c12.9,0,26.9,18.1,35.8,45.4c4.4,13.7,22.9,86.4,40.6,161.5
		c18.1,75.1,50.6,212.1,72.3,304.5c22.1,92,40.2,168.7,40.2,169.5c0,1.2,7.2,2,15.7,2C2629,30548.7,2633.8,30546.7,2635.4,30541.9z
		 M3732.2,30533.5c52.2-24.5,98-84.8,125.3-164.7c21.7-62.7,27.3-104.5,27.3-193.6c0-89.2-5.6-131-27.3-193.6
		c-27.3-79.5-73.5-140.6-125.7-165.1c-49.8-23.3-107.7-19.3-154.3,9.6c-64.7,41-115.7,139.4-131.8,254.7
		c-6.4,43.8-5.2,149.9,1.6,194.8c17.3,113.7,62.3,201.7,126.1,245.9C3617.7,30552.3,3681.6,30557.2,3732.2,30533.5z M1054.9,30514.6
		c0-16.9-1.6-22.1-6-22.1c-3.2,0-13.3-2.8-22.1-6.4c-22.9-9.2-24.5-17.7-23.3-149.5l1.2-112.1l63.9,110.1
		c81.6,140.6,83.2,148.6,33.7,155.9l-19.3,2.8v21.7v21.7h96.4h96.4v-21.3v-21.3l-18.5-4.8c-30.9-8.4-50.6-25.3-80.8-69.9
		c-47.4-69.9-94-151.9-90-159.5c2-3.6,37.8-78.7,79.9-167.1c114.5-241.5,104.5-222.2,117.7-225c11.2-2.4,11.7-3.6,11.7-24.5v-21.7
		h-110.5H1075v22.1c0,21.7,0.4,22.1,11.7,22.1c6.4,0,17.3,1.2,24.5,2.4c12.1,2.8,12.9,3.6,10.8,16.5
		c-2.8,15.7-111.7,250.3-116.1,250.3c-2,0-3.2-52.6-3.2-116.5c0-131,1.6-140.2,24.1-148.2c7.2-2.4,16.5-4.4,20.5-4.4
		c6.4,0,7.6-3.2,7.6-22.1v-22.1H944.5H834v21.7v21.7l15.7,2.8c8.8,1.2,18.5,5.6,22.1,9.6c13.3,14.9,14.9,48.2,13.7,316.6
		c-1.2,300.1,0.4,284-32.1,294.5l-19.3,6v21.3v20.9h110.5h110.5V30514.6z M1517,30515v-21.7l-19.3-2.8c-28.1-3.6-30.5-6-28.1-29.3
		c2.4-26.5,76.7-255.1,80.3-248.3c5.6,10,63.1,174.8,69.5,198.5c7.6,30.5,8,62.7,0,70.3c-2.8,3.2-13.7,7.2-24.1,8.4l-18.1,2.8v22.1
		v21.7h74.3h74.3v-22.1c0-16.5-1.6-22.1-5.6-22.1c-11.7,0-29.7-20.5-38.2-43c-4.4-12.9-31.7-88.4-60.7-167.9l-52.2-144.6v-100.4
		c0-149,3.6-163.5,40.6-169.1l15.7-2.8v-21.3v-21.7h-112.5h-112.5v22.1c0,18.9,1.2,22.1,7.6,22.1c4,0,13.3,2,20.5,4.4
		c22.1,8,24.1,18.5,24.1,134.6v103.7l-56.6,174.8c-30.9,96.4-59.5,179.6-62.7,185.2c-8,13.3-21.7,24.1-30.1,24.1
		c-6,0-7.2,3.6-7.2,22.1v22.1h110.5H1517V30515z M2017.1,30525.4c56.6-21.3,88.8-67.1,99.2-142.6c5.2-37.4-0.4-90.8-13.3-125.3
		c-10.8-29.3-39-65.5-61.5-79.9c-10-6.4-18.5-12.1-18.5-12.9c0-1.2,113.7-269.2,120.9-284c6-13.3,18.9-17.3,43-12.5
		c12.9,2.4,20.5,6.8,26.5,14.9c8.4,11.2,8.4,13.3,8.4,296.1s0,284.8-8.4,296.1c-6,8-13.7,12.5-26.9,14.9l-18.9,3.6v21.7v21.3h114.5
		h114.5v-21.3v-21.7l-18.9-3.6c-13.3-2.4-20.9-6.8-26.9-14.9c-8.4-11.2-8.4-13.3-8.4-296.1s0-284.8,8.4-296.1
		c6-8,13.7-12.5,26.9-14.9l18.9-3.6v-21.7v-21.3l-183.6,0.8l-183.2,1.2l-31.7,74.3c-17.3,41-44.6,105.3-60.3,142.6
		c-15.7,37.8-30.5,70.3-32.5,72.3c-2,2.4-2.8-37.8-2-102.4c2-120.5,4-131.8,27.3-140.2c7.2-2.4,16.5-4.4,20.5-4.4
		c6.4,0,7.6-3.2,7.6-22.1v-22.1h-112.5h-112.5v22.1c0,18.9,1.2,22.1,7.6,22.1c4,0,13.3,2,20.5,4.4c24.5,8.8,24.1,2.4,24.1,308.9
		c0,311.4,0.8,301.3-26.9,308.9c-8.4,2.4-17.7,4.4-20.1,4.4c-3.6,0-5.2,7.2-5.2,22.5v22.1l129.8-1.2
		C1986.2,30534.7,1994.2,30534.3,2017.1,30525.4z M3070.1,30355.9c47-98.4,91.2-189.6,97.6-202.9l12.5-24.1l-1.2,160.7
		c-0.8,151.5-1.2,161.5-8.8,176.8c-6.4,13.3-11.2,17.3-26.9,22.1l-19.3,6v21.3v20.9h74.3h74.3v-21.3c0-21.7,0-21.7-15.3-26.1
		c-8.4-2.8-18.9-8.4-23.3-13.3c-7.2-8-7.6-20.1-8.8-341.9l-0.8-333l-16.9,1.2l-16.5,1.2l-124.9,260.3l-124.9,259.9l-1.2-201.7
		c-0.4-111.3,0-207.7,1.2-214.9c3.6-19.7,20.1-37,38.6-39.8l15.7-2.8v-21.3v-21.7h-78.3h-78.3v22.1c0,18.9,1.2,22.1,7.6,22.1
		c4,0,13.3,2,20.5,4.4c24.5,8.8,24.1,3.6,24.1,294.9v263.5l-16.1,29.3c-9.6,17.7-20.1,30.9-26.1,33.7c-8.8,4-10,7.2-10,24.9v20.1
		l72.7-0.8l72.7-1.2L3070.1,30355.9z M4128.3,30514.6c0-16.9-1.6-22.1-6-22.1c-3.2,0-12.9-2.8-21.7-6.4
		c-11.2-4.4-17.3-9.6-20.1-18.5c-2.8-7.6-4.4-56.6-4.4-129v-116.9l64.7,111.3c82.8,142.2,84.4,150.3,35,157.5l-19.3,2.8v21.7v21.7
		h96.4h96.4v-21.7v-21.7l-18.5-4.4c-41.8-10.4-67.9-41.4-141.4-166.3l-32.5-55l91.2-192c50.2-105.3,93.2-194.8,95.6-198.9
		c5.6-9.6,32.5-13.3,51.4-6.8c29.7,9.6,28.5-3.6,28.5,307.3c0,306.5,0.4,299.3-24.5,309.7c-7.6,3.2-17.3,5.6-21.7,5.6
		c-7.2,0-8,2.4-8,22.1v22.1h182.8H4735v-112.5v-112.5h-15.7H4704l-2.8,25.7c-3.2,32.1-16.5,83.2-26.5,103.2
		c-10.8,20.9-30.1,34.1-60.3,42.2c-27.3,6.8-61.5,6-69.5-2c-3.6-3.6-5.2-41.8-6-137.4l-1.2-133l13.3,2.8c22.9,4.8,35,13.7,43.8,30.9
		c9.2,17.7,23.7,80.8,23.7,102.8c0,12.5,0.8,12.9,16.1,12.9h16.1v-176.8v-176.8h-15.3h-15.3l-4.4,39.4
		c-8.8,72.7-24.9,104.1-57,112.5c-8.8,2-17.3,2.8-18.5,1.6c-1.2-1.2-2-59.1-1.6-129c0-141,1.6-152.3,21.7-157.9
		c31.7-9.2,86.8,8.4,110.9,36.2c16.5,18.5,45,78.7,54.2,114.5l7.2,26.9h17.3h17.3l-2.4-20.9c-1.2-11.7-7.2-62.7-13.3-113.7
		l-10.8-92.4l-296.1-1.2l-296.1-0.8v22.1c0,21.7,0.4,22.1,11.7,22.1c25.7,0,36.6,4.4,36.6,14.9c0,10.8-112.5,254.3-117.3,254.3
		c-2,0-3.2-52.6-3.2-116.5c0-131,1.6-140.2,24.1-148.2c7.2-2.4,16.5-4.4,20.5-4.4c6.4,0,7.6-3.2,7.6-22.1v-22.1h-110.5h-110.5v21.7
		v21.7l15.7,2.8c8.8,1.2,18.9,6,22.5,10c12.9,14.1,14.5,54.6,13.3,319.4c-1.2,296.5,0.4,280.8-32.1,291.3l-19.3,6v21.3v20.9h110.5
		h110.5V30514.6z M5000.1,30515c0-21.7,0-21.7-14.1-24.1c-7.6-1.6-18.9-7.2-24.9-12.5l-11.2-9.2l-1.2-124.1l-1.2-123.7l53,90.4
		c71.5,122.5,79.9,139,79.9,154.7c0,16.1-5.6,20.1-32.9,24.1l-19.3,2.8v21.7v21.7h96.4h96.4v-21.3v-21.3l-18.5-4.8
		c-41.8-11.2-67.9-42.2-141.4-166.7l-32.5-55l91.2-192c50.2-105.3,93.2-194.8,95.6-198.9c5.6-9.6,32.5-13.3,51.4-6.8
		c29.7,9.6,28.5-3.6,28.5,307.3c0,306.5,0.4,299.3-24.5,309.7c-7.6,3.2-17.3,5.6-21.7,5.6c-7.2,0-8,2.4-8,22.1v22.1H5424h182.8
		v-112.5v-112.5h-16.1c-15.3,0-16.1,0.4-16.1,13.3c0,22.1-14.9,86-25.3,108.5c-12.5,26.9-30.1,41-63.1,49.4c-27.3,6.8-61.5,6-69.5-2
		c-3.6-3.6-5.2-41.8-6-137.4l-1.2-133l13.3,2.8c22.1,4.8,35,13.7,43,29.3c9.2,18.5,19.3,58.7,22.9,92.4l2.8,24.9h15.3h15.7v-176.8
		v-176.8h-15.3h-15.3l-4.4,39.4c-8.8,72.7-24.9,104.1-57,112.5c-8.8,2-17.3,2.8-18.5,1.6c-1.2-1.2-2-59.1-1.6-129
		c0-141,1.6-152.3,21.7-157.9c31.7-9.2,86.8,8.4,110.9,36.2c16.5,18.5,45,78.7,54.2,114.5l7.2,26.9h17.3h17.7l-2.4-18.9
		c-1.6-10.8-7.6-61.9-13.7-113.7l-10.4-94.4l-296.5-1.2l-296.1-0.8v22.1c0,21.7,0.4,22.1,11.7,22.1c25.7,0,36.6,4.4,36.6,14.9
		c0,10.8-112.5,254.3-117.3,254.3c-2,0-3.2-52.6-3.2-116.5c0-131,1.6-140.2,24.1-148.2c7.2-2.4,16.5-4.4,20.5-4.4
		c6.4,0,7.6-3.2,7.6-22.1v-22.1h-110.5h-110.5v21.7v21.7l15.7,2.8c8.8,1.2,18.5,5.6,22.1,9.6c13.3,14.9,14.9,48.2,13.7,316.6
		c-1.2,300.1,0.4,284-32.1,294.5l-19.3,6v21.3v20.9h110.5h110.5V30515z M5646.9,29739.2v-18.1H5481h-165.9l-19.3-43.8
		c-23.7-54.6-71.5-136.2-110.9-190c-57.9-78.3-168.7-184.8-244.7-233.4c-146.2-94.8-292.9-139.8-476.5-146.2
		c-239.8-8-457.6,61.9-623.9,201.3c-49,40.6-124.5,120.9-161.9,171.1c-49.8,67.1-68.7,98.4-105.3,173.6l-32.9,67.1l-425.5,0.4
		h-425.1l9.6-12.9c5.2-7.2,69.9-96.4,143.8-198.1c73.5-101.6,139.4-190.8,146.2-198.1c20.1-21.7,35-28.5,78.3-35.8l40.6-7.2v-45
		v-45.4h-462h-462v45.4v45.8l63.5,2.8c105.7,4.8,133,10.4,143.8,30.9c8,15.7,6.8,30.1-3.6,55.8c-12.9,31.3-27.3,52.2-144.6,216.1
		l-104.9,145.4h-174h-174v-143.4c0-156.3,2.4-179.6,22.1-217.7c27.3-54.2,75.5-77.5,180-86.8l30.9-2.8v-45.8v-45.8h-464h-464v45.8
		v45.8l35.4,2.8c46.2,3.6,90.4,12.5,112.9,23.3c28.1,12.9,57.9,45,68.3,73.1c14.9,40.2,16.5,58.3,16.5,207.3v144.2l-257.9,0.8
		l-258.3,1.2l-1.2,11.2c-0.8,6.4-0.4,14.1,0.8,17.3c2,4.8,338.7,5.6,2418.9,5.6h2416.5V29739.2z"/>
	<path d="M4377.4,31136.9c-96.8-17.7-155.9-48.2-213.3-108.9c-73.9-78.3-129.8-200.1-164.3-357.6l-7.2-33.3h279.6
		c154.3,0,349.1-1.2,433.9-2.8l153.9-2.4l-2.4,11.7c-21.3,93.6-44.2,164.7-72.3,225.4c-65.1,139.4-155.1,227.4-263.9,258.7
		C4492.7,31135.7,4402.7,31141.7,4377.4,31136.9z"/>
	<path d="M2580.4,30273.5c-4.8-15.7-43-184.4-43-189.6c0-4,10.4-5.2,46.2-5.2c25.3,0,46.2,1.6,46.2,3.6c0,3.2-42.2,182.4-45.8,195.2
		C2583.2,30280,2581.6,30278,2580.4,30273.5z"/>
	<path d="M3644.2,30495.7c-51.8-28.5-73.1-106.9-77.1-283.2c-5.2-215.3,21.3-334.7,79.1-358.8c26.1-10.8,57,5.6,73.9,39.8
		c29.3,57.4,39.8,131.8,39.8,277.6c0,143-11.2,226.2-39,280.4C3700.5,30491.7,3669.1,30509.8,3644.2,30495.7z"/>
	<path d="M1916.3,30484.5c-12.5-4.8-13.7-18.9-13.7-161.5v-127.4l15.3,2.4c8,1.2,24.1,6.4,35.4,11.7c33.3,15.7,41.4,41,41.8,131
		c0,62.7-4,92-16.9,116.9C1965.7,30482.4,1939.6,30494.1,1916.3,30484.5z"/>
	<path d="M3995.7,29713.9c0-3.6,6-31.3,13.7-61.1c60.3-237,166.3-375.2,319.8-415.8c39.8-10.4,129.8-12.5,174.8-4
		c140.2,26.1,241.9,130.6,311,318.6c14.9,40.6,44.6,150.3,44.6,164.3c0,4.4-79.9,5.2-431.9,5.2
		C4017.4,29721.1,3995.7,29720.7,3995.7,29713.9z"/>
</g>
</svg>
