<?xml version="1.0" encoding="UTF-8"?>
<svg id="Layer_1" data-name="Layer 1" xmlns="http://www.w3.org/2000/svg" viewBox="0 0 17.29 16">
  <defs>
    <style>
      .cls-1, .cls-2 {
        fill: none;
      }

      .cls-3 {
        fill: #fff;
      }

      .cls-4 {
        fill: #231f20;
      }

      .cls-2 {
        stroke: #231f20;
        stroke-miterlimit: 10;
        stroke-width: .25px;
      }
    </style>
  </defs>
  <rect class="cls-3" x=".65" width="16" height="16"/>
  <g>
    <path class="cls-4" d="m.8,8.66c.06,0,.1-.02.12-.04.04-.04.06-.1.06-.2v-1.66c0-.1-.02-.16-.05-.2-.02-.02-.06-.03-.12-.04v-.09h.69v.09c-.07,0-.12.03-.14.07-.02.03-.04.12-.04.25v.73l.44-.75c.03-.05.05-.09.06-.11,0-.02.01-.05.01-.08,0-.04-.01-.07-.04-.08s-.07-.02-.14-.03v-.09h.59v.09c-.11.01-.19.06-.26.15-.07.09-.2.29-.4.63l.62,1.29s.03.05.04.05c.01,0,.03.01.06.02v.09h-.69v-.09c.06,0,.1,0,.13-.01.02,0,.03-.03.03-.06,0-.01,0-.03-.01-.06,0-.02-.02-.05-.04-.09l-.37-.78-.05.09v.67c0,.1.02.17.06.2.02.02.06.03.12.04v.09h-.69v-.09Z"/>
    <path class="cls-4" d="m2.95,6.44v.09c-.07,0-.12.02-.14.03-.02.01-.03.03-.03.07,0,.02,0,.03,0,.05,0,.02.01.05.03.1l.27.82h0l.22-.6s.03-.08.04-.14c.02-.08.03-.14.03-.18,0-.06-.01-.1-.04-.12-.02-.01-.06-.02-.13-.03v-.09h.45v.09s-.06.02-.08.04c-.02.02-.05.05-.06.1l-.39,1.06v.63c0,.13.01.21.04.25.03.04.08.06.15.06v.09h-.71v-.09c.08,0,.13-.03.15-.07s.04-.12.04-.25v-.5l-.37-1.14c-.02-.07-.05-.13-.09-.16-.02-.02-.05-.03-.07-.03v-.09h.68Z"/>
    <path class="cls-4" d="m3.65,8.66c.07,0,.12-.03.14-.07.03-.04.04-.12.04-.25v-1.51c0-.13-.02-.22-.04-.26-.02-.03-.06-.04-.13-.05v-.09h.66c.14,0,.25.02.33.07.16.1.25.27.25.52,0,.19-.04.33-.13.44-.07.08-.13.13-.21.15l.43.97s.02.04.04.05c.01,0,.03.01.05.02v.08h-.43l-.48-1.07h0v.67c0,.12.01.2.04.24.02.04.07.06.14.07v.09h-.69v-.09Zm.8-1.19c.06-.06.09-.2.09-.41,0-.13-.01-.24-.03-.31-.04-.13-.11-.2-.21-.2-.05,0-.09.01-.11.03-.02.02-.03.06-.03.11v.87c.13,0,.23-.03.29-.09Z"/>
    <path class="cls-4" d="m5.02,8.66c.06,0,.1-.01.12-.04.04-.04.06-.1.06-.21v-1.66c0-.1-.02-.17-.06-.2-.02-.02-.07-.03-.13-.04v-.09h.72v.09c-.06,0-.11.02-.13.04-.04.03-.06.1-.06.2v1.66c0,.1.02.16.05.19.03.03.08.05.14.05v.09h-.72v-.09Z"/>
    <path class="cls-4" d="m5.72,8.66s.09-.04.12-.11c.02-.04.05-.14.08-.29l.45-1.87h.06l.46,1.8c.05.2.09.33.11.39.03.06.06.09.11.08v.09h-.66v-.09c.07,0,.11-.01.13-.03.02-.01.03-.05.03-.11,0-.03,0-.07-.02-.12,0-.03-.02-.07-.03-.12l-.05-.21h-.46c-.03.14-.05.22-.06.27-.02.09-.03.15-.03.19,0,.05.02.08.06.11.02.01.06.02.1.02v.09h-.42v-.09Zm.77-.72l-.2-.79h-.02l-.18.79h.4Z"/>
    <path class="cls-4" d="m7.09,8.66c.08,0,.12-.03.15-.07.02-.05.03-.11.03-.2v-1.62c-.06-.12-.1-.19-.12-.21-.01-.02-.03-.03-.06-.04v-.09h.43l.7,1.43h0v-1.01c0-.12-.01-.2-.04-.25-.03-.05-.08-.08-.15-.09v-.09h.44v.09c-.06.02-.11.04-.13.07-.02.03-.03.1-.03.2v2.02h-.06l-.9-1.83h-.01v1.34c0,.11,0,.18.03.22.03.07.08.11.17.11v.09h-.46v-.09Z"/>
  </g>
  <g>
    <path class="cls-4" d="m10.2,6.77c.15.23.23.52.23.87s-.08.65-.23.87c-.15.22-.34.33-.56.33-.24,0-.43-.12-.58-.36-.14-.23-.21-.5-.21-.82,0-.35.07-.65.22-.87.15-.23.34-.35.57-.35s.41.11.56.33Zm-.22,1.51c.03-.16.05-.37.05-.64,0-.36-.04-.63-.11-.81-.07-.18-.17-.27-.29-.27-.17,0-.29.15-.35.46-.03.16-.05.37-.05.63s.02.48.05.64c.06.3.18.45.35.45s.28-.15.35-.45Z"/>
    <path class="cls-4" d="m10.45,8.69c.06,0,.1-.02.13-.04.04-.04.06-.1.06-.2v-1.64c0-.1-.02-.16-.06-.2-.02-.02-.07-.03-.14-.04v-.09h.76v.09c-.08,0-.13.03-.16.07-.03.03-.04.11-.04.24v.72l.48-.74c.03-.05.06-.09.06-.11,0-.02.01-.05.01-.08,0-.04-.01-.07-.04-.08s-.08-.02-.15-.03v-.09h.65v.09c-.12.01-.21.06-.29.15-.08.08-.22.29-.43.62l.68,1.28s.03.04.04.05.04.01.07.02v.09h-.75v-.09c.07,0,.11,0,.14-.01.02,0,.04-.03.04-.06,0-.01,0-.03-.01-.06,0-.02-.02-.05-.04-.09l-.41-.77-.06.09v.66c0,.1.02.16.06.2.02.02.07.03.13.04v.09h-.75v-.09Z"/>
    <path class="cls-4" d="m12.06,8.77v-.09c.06,0,.11-.02.14-.04.04-.04.06-.1.06-.2v-1.64c0-.1-.02-.16-.06-.2-.02-.02-.07-.03-.13-.04v-.09h1.29v.68h-.05c-.03-.22-.08-.37-.14-.45-.07-.08-.19-.12-.37-.12-.07,0-.11.01-.13.03-.02.02-.03.06-.03.13v.78c.13,0,.21-.03.26-.1.05-.07.08-.2.1-.4h.06v1.14h-.06c-.02-.19-.05-.33-.1-.41-.05-.08-.14-.12-.26-.12v.82c0,.07.01.12.04.15.02.03.07.04.15.04.14,0,.26-.04.35-.13.09-.08.17-.24.24-.47h.06l-.09.7h-1.31Z"/>
    <path class="cls-4" d="m13.46,8.69c.06,0,.1-.02.13-.04.04-.04.06-.1.06-.2v-1.64c0-.1-.02-.16-.06-.2-.02-.02-.07-.03-.14-.04v-.09h.76v.09c-.08,0-.13.03-.16.07-.03.03-.04.11-.04.24v.72l.48-.74c.03-.05.06-.09.06-.11,0-.02.01-.05.01-.08,0-.04-.01-.07-.04-.08s-.08-.02-.15-.03v-.09h.65v.09c-.12.01-.21.06-.29.15-.08.08-.22.29-.43.62l.68,1.28s.03.04.04.05.04.01.07.02v.09h-.75v-.09c.07,0,.11,0,.14-.01.02,0,.04-.03.04-.06,0-.01,0-.03-.01-.06,0-.02-.02-.05-.04-.09l-.41-.77-.06.09v.66c0,.1.02.16.06.2.02.02.07.03.13.04v.09h-.75v-.09Z"/>
    <path class="cls-4" d="m15.07,8.77v-.09c.06,0,.11-.02.14-.04.04-.04.06-.1.06-.2v-1.64c0-.1-.02-.16-.06-.2-.02-.02-.07-.03-.13-.04v-.09h1.29v.68h-.05c-.03-.22-.08-.37-.14-.45-.07-.08-.19-.12-.37-.12-.07,0-.11.01-.13.03-.02.02-.03.06-.03.13v.78c.13,0,.21-.03.26-.1.05-.07.08-.2.1-.4h.06v1.14h-.06c-.02-.19-.05-.33-.1-.41-.05-.08-.14-.12-.26-.12v.82c0,.07.01.12.04.15.02.03.07.04.15.04.14,0,.26-.04.35-.13.09-.08.17-.24.24-.47h.06l-.09.7h-1.31Z"/>
  </g>
  <g>
    <g>
      <path d="m7,4.1c.35-.28.79-.44,1.33-.49v-.28h-2.99v.28c.34.02.57.05.69.09.12.04.18.13.18.27,0,.1-.02.19-.07.26-.05.07-.15.19-.3.36l-1.33,1.45h.58c.93-1.02,1.56-1.67,1.9-1.94Z"/>
      <path d="m3.62,4.63c0-.42.06-.69.19-.8.12-.11.36-.18.72-.22v-.28H1.03v.28c.3.02.51.07.62.14.18.11.27.33.27.65v1.65h1.69v-1.41Z"/>
      <path d="m11.16,5.04c.28-1.01.81-1.51,1.58-1.51.55,0,.99.3,1.31.9.22.4.36.94.43,1.6h1.75c-.15-.69-.46-1.29-.93-1.79-.68-.73-1.53-1.09-2.55-1.09s-1.93.38-2.61,1.14c-.44.49-.73,1.07-.88,1.74h1.73c.04-.38.09-.71.17-1Z"/>
    </g>
    <line class="cls-2" y1="6.14" x2="17.26" y2="6.14"/>
  </g>
  <g>
    <line class="cls-2" x1=".03" y1="9.14" x2="17.29" y2="9.14"/>
    <g>
      <path class="cls-1" d="m11.22,10.35c.29.99.82,1.49,1.6,1.49s1.3-.5,1.59-1.49c.1-.34.16-.74.2-1.21h-3.59c.04.47.1.88.2,1.21Z"/>
      <path d="m1.95,10.93c0,.33-.1.55-.3.66-.12.07-.32.11-.6.12v.28h3.48v-.28c-.28-.01-.48-.06-.6-.13-.2-.12-.3-.34-.3-.66v-1.79h-1.69v1.79Z"/>
      <path d="m5.78,10.99c.09.13.16.23.2.3s.06.14.06.18c0,.1-.06.17-.17.19-.11.03-.33.04-.64.04v.28h3.46v-.28c-.14-.01-.24-.03-.31-.06-.07-.02-.13-.08-.2-.17l-1.75-2.34h-2.02l1.37,1.85Z"/>
      <path d="m14.31,10.35c-.28.99-.8,1.49-1.56,1.49s-1.28-.5-1.56-1.49c-.1-.34-.16-.74-.2-1.21h-1.75c.13.71.42,1.34.88,1.88.68.79,1.56,1.19,2.64,1.19,1.02,0,1.86-.36,2.54-1.09.51-.55.83-1.21.97-1.99h-1.75c-.04.47-.1.88-.2,1.21Z"/>
    </g>
  </g>
</svg>